<svg width="26" height="28" viewBox="0 0 26 28" fill="none" xmlns="http://www.w3.org/2000/svg">
<path d="M0.343613 1.97647C0.343613 1.73562 0.439289 1.50464 0.609592 1.33434C0.779895 1.16403 1.01088 1.06836 1.25172 1.06836H2.04722C3.36761 1.06836 4.12679 1.92743 4.56631 2.78468C4.86599 3.37132 5.08212 4.08691 5.26193 4.70806H23.9599C24.2405 4.70814 24.5173 4.77326 24.7685 4.89829C25.0198 5.02333 25.2386 5.20489 25.4079 5.42872C25.5772 5.65255 25.6923 5.91257 25.7442 6.18836C25.7961 6.46416 25.7834 6.74823 25.7071 7.01828L22.99 16.5988C22.7739 17.3589 22.3158 18.0278 21.6852 18.504C21.0546 18.9803 20.2858 19.2379 19.4956 19.2378H10.271C9.47423 19.2381 8.69943 18.9763 8.06601 18.4929C7.4326 18.0095 6.97571 17.3312 6.76575 16.5625L5.59974 12.2853C5.59306 12.2661 5.587 12.2468 5.58158 12.2272L3.70906 5.87588L3.52744 5.26382C3.34582 4.63541 3.18599 4.07965 2.94625 3.61288C2.65747 3.04985 2.3923 2.88639 2.04541 2.88639H1.2499C1.00906 2.88639 0.778079 2.79072 0.607775 2.62041C0.437472 2.45011 0.341797 2.21913 0.341797 1.97828L0.343613 1.97647ZM7.33241 11.7368L8.5184 16.0885C8.62355 16.4726 8.85206 16.8116 9.16876 17.0531C9.48545 17.2946 9.87276 17.4254 10.271 17.4252H19.4974C19.8923 17.4248 20.2764 17.2957 20.5913 17.0574C20.9063 16.8192 21.135 16.4847 21.2428 16.1048L23.9599 6.52427H5.79771L7.33241 11.735V11.7368Z" fill="#2E2929"/>
<path d="M13.0624 23.7783C13.0624 24.5008 12.7754 25.1938 12.2645 25.7047C11.7536 26.2156 11.0606 26.5026 10.3381 26.5026C9.61556 26.5026 8.92262 26.2156 8.41171 25.7047C7.9008 25.1938 7.61377 24.5008 7.61377 23.7783C7.61377 23.0557 7.9008 22.3628 8.41171 21.8519C8.92262 21.341 9.61556 21.054 10.3381 21.054C11.0606 21.054 11.7536 21.341 12.2645 21.8519C12.7754 22.3628 13.0624 23.0557 13.0624 23.7783V23.7783ZM11.2462 23.7783C11.2462 23.5374 11.1505 23.3065 10.9802 23.1362C10.8099 22.9658 10.5789 22.8702 10.3381 22.8702C10.0972 22.8702 9.86627 22.9658 9.69596 23.1362C9.52566 23.3065 9.42999 23.5374 9.42999 23.7783C9.42999 24.0191 9.52566 24.2501 9.69596 24.4204C9.86627 24.5907 10.0972 24.6864 10.3381 24.6864C10.5789 24.6864 10.8099 24.5907 10.9802 24.4204C11.1505 24.2501 11.2462 24.0191 11.2462 23.7783Z" fill="#2E2929"/>
<path d="M22.1435 23.7783C22.1435 24.5008 21.8564 25.1938 21.3455 25.7047C20.8346 26.2156 20.1417 26.5026 19.4191 26.5026C18.6966 26.5026 18.0037 26.2156 17.4928 25.7047C16.9818 25.1938 16.6948 24.5008 16.6948 23.7783C16.6948 23.0557 16.9818 22.3628 17.4928 21.8519C18.0037 21.341 18.6966 21.054 19.4191 21.054C20.1417 21.054 20.8346 21.341 21.3455 21.8519C21.8564 22.3628 22.1435 23.0557 22.1435 23.7783V23.7783ZM20.3273 23.7783C20.3273 23.5374 20.2316 23.3065 20.0613 23.1362C19.891 22.9658 19.66 22.8702 19.4191 22.8702C19.1783 22.8702 18.9473 22.9658 18.777 23.1362C18.6067 23.3065 18.511 23.5374 18.511 23.7783C18.511 24.0191 18.6067 24.2501 18.777 24.4204C18.9473 24.5907 19.1783 24.6864 19.4191 24.6864C19.66 24.6864 19.891 24.5907 20.0613 24.4204C20.2316 24.2501 20.3273 24.0191 20.3273 23.7783Z" fill="#2E2929"/>
<path d="M5.5 6L24.5 6.5L21 17.5H8L5.5 6Z" fill="#2E2929"/>
<circle cx="10.5" cy="23.5" r="1.5" fill="#2E2929"/>
<circle cx="19.5" cy="23.5" r="1.5" fill="#2E2929"/>
</svg>
