<svg width="107" height="115" viewBox="0 0 107 115" fill="none" xmlns="http://www.w3.org/2000/svg">
<path d="M1.41421 8.11767C1.41421 7.12848 1.80795 6.17981 2.50882 5.48035C3.20968 4.78089 4.16026 4.38794 5.15143 4.38794H8.42522C13.8591 4.38794 16.9834 7.91626 18.7923 11.4371C20.0255 13.8465 20.915 16.7856 21.655 19.3367H98.6042C99.7591 19.337 100.898 19.6045 101.932 20.118C102.966 20.6316 103.867 21.3773 104.563 22.2966C105.26 23.2159 105.734 24.2838 105.947 25.4165C106.161 26.5492 106.109 27.716 105.795 28.8251L94.6128 68.1738C93.7234 71.2956 91.8381 74.0428 89.2429 75.9988C86.6477 77.9548 83.4842 79.0128 80.232 79.0124H42.2694C38.9902 79.0135 35.8016 77.9385 33.1949 75.9529C30.5881 73.9674 28.7079 71.1816 27.8438 68.0246L23.0452 50.4576C23.0177 50.3788 22.9928 50.2992 22.9705 50.2189L15.2643 24.1331L14.5169 21.6193C13.7694 19.0383 13.1117 16.7557 12.1251 14.8386C10.9366 12.5262 9.84537 11.8549 8.41775 11.8549H5.14395C4.15278 11.8549 3.20221 11.4619 2.50134 10.7624C1.80048 10.063 1.40674 9.11431 1.40674 8.12513L1.41421 8.11767ZM30.1758 48.2048L35.0566 66.0777C35.4893 67.6555 36.4298 69.0476 37.7331 70.0396C39.0364 71.0316 40.6303 71.5686 42.2694 71.5678H80.2395C81.8648 71.5662 83.4452 71.0359 84.7414 70.0573C86.0375 69.0787 86.9787 67.7052 87.4224 66.1448L98.6042 26.7962H23.8599L30.1758 48.1973V48.2048Z" fill="#464040"/>
<path d="M53.7568 97.6609C53.7568 100.628 52.5756 103.474 50.473 105.573C48.3704 107.671 45.5187 108.85 42.5451 108.85C39.5716 108.85 36.7199 107.671 34.6173 105.573C32.5147 103.474 31.3335 100.628 31.3335 97.6609C31.3335 94.6933 32.5147 91.8473 34.6173 89.7489C36.7199 87.6505 39.5716 86.4717 42.5451 86.4717C45.5187 86.4717 48.3704 87.6505 50.473 89.7489C52.5756 91.8473 53.7568 94.6933 53.7568 97.6609V97.6609ZM46.2824 97.6609C46.2824 96.6717 45.8886 95.723 45.1878 95.0236C44.4869 94.3241 43.5363 93.9311 42.5451 93.9311C41.554 93.9311 40.6034 94.3241 39.9025 95.0236C39.2017 95.723 38.8079 96.6717 38.8079 97.6609C38.8079 98.6501 39.2017 99.5987 39.9025 100.298C40.6034 100.998 41.554 101.391 42.5451 101.391C43.5363 101.391 44.4869 100.998 45.1878 100.298C45.8886 99.5987 46.2824 98.6501 46.2824 97.6609Z" fill="#464040"/>
<path d="M91.1293 97.6609C91.1293 100.628 89.9481 103.474 87.8455 105.573C85.7429 107.671 82.8912 108.85 79.9177 108.85C76.9442 108.85 74.0925 107.671 71.9899 105.573C69.8873 103.474 68.7061 100.628 68.7061 97.6609C68.7061 94.6933 69.8873 91.8473 71.9899 89.7489C74.0925 87.6505 76.9442 86.4717 79.9177 86.4717C82.8912 86.4717 85.7429 87.6505 87.8455 89.7489C89.9481 91.8473 91.1293 94.6933 91.1293 97.6609V97.6609ZM83.6549 97.6609C83.6549 96.6717 83.2612 95.723 82.5603 95.0236C81.8594 94.3241 80.9089 93.9311 79.9177 93.9311C78.9265 93.9311 77.9759 94.3241 77.2751 95.0236C76.5742 95.723 76.1805 96.6717 76.1805 97.6609C76.1805 98.6501 76.5742 99.5987 77.2751 100.298C77.9759 100.998 78.9265 101.391 79.9177 101.391C80.9089 101.391 81.8594 100.998 82.5603 100.298C83.2612 99.5987 83.6549 98.6501 83.6549 97.6609Z" fill="#464040"/>
<ellipse cx="51.4155" cy="44.3372" rx="2.77922" ry="2.77108" fill="#464040"/>
<ellipse cx="69.4804" cy="44.3372" rx="2.77922" ry="2.77108" fill="#464040"/>
<path fill-rule="evenodd" clip-rule="evenodd" d="M71 48C71.0515 48 71.1018 48.0154 71.1445 48.0441C71.2194 48.093 73 49.2998 73 51.1524C73 51.6813 72.7893 52.1885 72.4142 52.5625C72.0391 52.9365 71.5304 53.1466 71 53.1466C70.4696 53.1466 69.9609 52.9365 69.5858 52.5625C69.2107 52.1885 69 51.6813 69 51.1524C69 49.3307 70.7781 48.0956 70.8555 48.0441C70.8982 48.0154 70.9485 48 71 48Z" fill="#0493D1"/>
</svg>
