<svg width="22" height="22" viewBox="0 0 22 22" fill="none" xmlns="http://www.w3.org/2000/svg">
<rect x="0.5" y="0.5" width="21" height="21" rx="2.5" stroke="#31430C"/>
<path d="M15.125 8H13.625V7.0625C13.625 6.64883 13.2887 6.3125 12.875 6.3125H9.125C8.71133 6.3125 8.375 6.64883 8.375 7.0625V8H6.875C6.66758 8 6.5 8.16758 6.5 8.375V8.75C6.5 8.80156 6.54219 8.84375 6.59375 8.84375H7.30156L7.59102 14.9727C7.60977 15.3723 7.94023 15.6875 8.33984 15.6875H13.6602C14.0609 15.6875 14.3902 15.3734 14.409 14.9727L14.6984 8.84375H15.4062C15.4578 8.84375 15.5 8.80156 15.5 8.75V8.375C15.5 8.16758 15.3324 8 15.125 8ZM12.7812 8H9.21875V7.15625H12.7812V8Z" fill="#31430C"/>
</svg>
