<svg width="22" height="22" viewBox="0 0 22 22" fill="none" xmlns="http://www.w3.org/2000/svg">
<rect x="0.5" y="0.5" width="21" height="21" rx="2.5" stroke="#31430C"/>
<path d="M10.5313 5.375H11.4688C11.5521 5.375 11.5938 5.41667 11.5938 5.5V16.5C11.5938 16.5833 11.5521 16.625 11.4688 16.625H10.5313C10.4479 16.625 10.4062 16.5833 10.4062 16.5V5.5C10.4062 5.41667 10.4479 5.375 10.5313 5.375Z" fill="#31430C"/>
<path d="M5.75 10.4062H16.25C16.3333 10.4062 16.375 10.4479 16.375 10.5313V11.4688C16.375 11.5521 16.3333 11.5938 16.25 11.5938H5.75C5.66667 11.5938 5.625 11.5521 5.625 11.4688V10.5313C5.625 10.4479 5.66667 10.4062 5.75 10.4062Z" fill="#31430C"/>
</svg>
